<?xml version='1.0' encoding='UTF-8' standalone='no'?>
<!-- Created with Fritzing (http://www.fritzing.org/) -->
<svg xmlns:svg='http://www.w3.org/2000/svg' xmlns='http://www.w3.org/2000/svg' version='1.2' baseProfile='tiny' x='0in' y='0in' width='0.8in' height='0.8in' viewBox='0 0 57.6 57.6' >
<g partID='854124510'><g transform='translate(57.6,57.6)' ><g transform='matrix(-1,0,0,-1,0,0)'  ><g xmlns="http://www.w3.org/2000/svg" id="breadboardbreadboard">
 <path xmlns="http://www.w3.org/2000/svg" stroke-width="0" fill-opacity="1" id="boardoutline" d="M0,0L57.6,0,57.6,57.6,0,57.6zM5.94,7.2a1.26,1.26,0,1,0,2.52,0,1.26,1.26,0,1,0,-2.52,0zM13.14,7.2a1.26,1.26,0,1,0,2.52,0,1.26,1.26,0,1,0,-2.52,0zM20.34,7.2a1.26,1.26,0,1,0,2.52,0,1.26,1.26,0,1,0,-2.52,0zM27.54,7.2a1.26,1.26,0,1,0,2.52,0,1.26,1.26,0,1,0,-2.52,0zM34.74,7.2a1.26,1.26,0,1,0,2.52,0,1.26,1.26,0,1,0,-2.52,0zM41.94,7.2a1.26,1.26,0,1,0,2.52,0,1.26,1.26,0,1,0,-2.52,0zM49.14,7.2a1.26,1.26,0,1,0,2.52,0,1.26,1.26,0,1,0,-2.52,0zM5.94,14.4a1.26,1.26,0,1,0,2.52,0,1.26,1.26,0,1,0,-2.52,0zM13.14,14.4a1.26,1.26,0,1,0,2.52,0,1.26,1.26,0,1,0,-2.52,0zM20.34,14.4a1.26,1.26,0,1,0,2.52,0,1.26,1.26,0,1,0,-2.52,0zM27.54,14.4a1.26,1.26,0,1,0,2.52,0,1.26,1.26,0,1,0,-2.52,0zM34.74,14.4a1.26,1.26,0,1,0,2.52,0,1.26,1.26,0,1,0,-2.52,0zM41.94,14.4a1.26,1.26,0,1,0,2.52,0,1.26,1.26,0,1,0,-2.52,0zM49.14,14.4a1.26,1.26,0,1,0,2.52,0,1.26,1.26,0,1,0,-2.52,0zM5.94,21.6a1.26,1.26,0,1,0,2.52,0,1.26,1.26,0,1,0,-2.52,0zM13.14,21.6a1.26,1.26,0,1,0,2.52,0,1.26,1.26,0,1,0,-2.52,0zM20.34,21.6a1.26,1.26,0,1,0,2.52,0,1.26,1.26,0,1,0,-2.52,0zM27.54,21.6a1.26,1.26,0,1,0,2.52,0,1.26,1.26,0,1,0,-2.52,0zM34.74,21.6a1.26,1.26,0,1,0,2.52,0,1.26,1.26,0,1,0,-2.52,0zM41.94,21.6a1.26,1.26,0,1,0,2.52,0,1.26,1.26,0,1,0,-2.52,0zM49.14,21.6a1.26,1.26,0,1,0,2.52,0,1.26,1.26,0,1,0,-2.52,0zM5.94,28.8a1.26,1.26,0,1,0,2.52,0,1.26,1.26,0,1,0,-2.52,0zM13.14,28.8a1.26,1.26,0,1,0,2.52,0,1.26,1.26,0,1,0,-2.52,0zM20.34,28.8a1.26,1.26,0,1,0,2.52,0,1.26,1.26,0,1,0,-2.52,0zM27.54,28.8a1.26,1.26,0,1,0,2.52,0,1.26,1.26,0,1,0,-2.52,0zM34.74,28.8a1.26,1.26,0,1,0,2.52,0,1.26,1.26,0,1,0,-2.52,0zM41.94,28.8a1.26,1.26,0,1,0,2.52,0,1.26,1.26,0,1,0,-2.52,0zM49.14,28.8a1.26,1.26,0,1,0,2.52,0,1.26,1.26,0,1,0,-2.52,0zM5.94,36a1.26,1.26,0,1,0,2.52,0,1.26,1.26,0,1,0,-2.52,0zM13.14,36a1.26,1.26,0,1,0,2.52,0,1.26,1.26,0,1,0,-2.52,0zM20.34,36a1.26,1.26,0,1,0,2.52,0,1.26,1.26,0,1,0,-2.52,0zM27.54,36a1.26,1.26,0,1,0,2.52,0,1.26,1.26,0,1,0,-2.52,0zM34.74,36a1.26,1.26,0,1,0,2.52,0,1.26,1.26,0,1,0,-2.52,0zM41.94,36a1.26,1.26,0,1,0,2.52,0,1.26,1.26,0,1,0,-2.52,0zM49.14,36a1.26,1.26,0,1,0,2.52,0,1.26,1.26,0,1,0,-2.52,0zM5.94,43.2a1.26,1.26,0,1,0,2.52,0,1.26,1.26,0,1,0,-2.52,0zM13.14,43.2a1.26,1.26,0,1,0,2.52,0,1.26,1.26,0,1,0,-2.52,0zM20.34,43.2a1.26,1.26,0,1,0,2.52,0,1.26,1.26,0,1,0,-2.52,0zM27.54,43.2a1.26,1.26,0,1,0,2.52,0,1.26,1.26,0,1,0,-2.52,0zM34.74,43.2a1.26,1.26,0,1,0,2.52,0,1.26,1.26,0,1,0,-2.52,0zM41.94,43.2a1.26,1.26,0,1,0,2.52,0,1.26,1.26,0,1,0,-2.52,0zM49.14,43.2a1.26,1.26,0,1,0,2.52,0,1.26,1.26,0,1,0,-2.52,0zM5.94,50.4a1.26,1.26,0,1,0,2.52,0,1.26,1.26,0,1,0,-2.52,0zM13.14,50.4a1.26,1.26,0,1,0,2.52,0,1.26,1.26,0,1,0,-2.52,0zM20.34,50.4a1.26,1.26,0,1,0,2.52,0,1.26,1.26,0,1,0,-2.52,0zM27.54,50.4a1.26,1.26,0,1,0,2.52,0,1.26,1.26,0,1,0,-2.52,0zM34.74,50.4a1.26,1.26,0,1,0,2.52,0,1.26,1.26,0,1,0,-2.52,0zM41.94,50.4a1.26,1.26,0,1,0,2.52,0,1.26,1.26,0,1,0,-2.52,0zM49.14,50.4a1.26,1.26,0,1,0,2.52,0,1.26,1.26,0,1,0,-2.52,0z" stroke="none" fill="#deb675"/>
 <path xmlns="http://www.w3.org/2000/svg" stroke-width="0.576" stroke-opacity="1" d="M0.288,0.288L57.024,0.288,57.024,57.024,0.288,57.024z" stroke="#deb675" fill="none"/>
 <circle xmlns="http://www.w3.org/2000/svg" stroke-width="1.44" r="1.98" id="connector0pin" cx="7.2" cy="7.2" stroke="#c49c59" fill="none" connectorname="0.0"/>
 <circle xmlns="http://www.w3.org/2000/svg" stroke-width="1.44" r="1.98" id="connector1pin" cx="14.4" cy="7.2" stroke="#c49c59" fill="none" connectorname="1.0"/>
 <circle xmlns="http://www.w3.org/2000/svg" stroke-width="1.44" r="1.98" id="connector2pin" cx="21.6" cy="7.2" stroke="#c49c59" fill="none" connectorname="2.0"/>
 <circle xmlns="http://www.w3.org/2000/svg" stroke-width="1.44" r="1.98" id="connector3pin" cx="28.8" cy="7.2" stroke="#c49c59" fill="none" connectorname="3.0"/>
 <circle xmlns="http://www.w3.org/2000/svg" stroke-width="1.44" r="1.98" id="connector4pin" cx="36" cy="7.2" stroke="#c49c59" fill="none" connectorname="4.0"/>
 <circle xmlns="http://www.w3.org/2000/svg" stroke-width="1.44" r="1.98" id="connector5pin" cx="43.2" cy="7.2" stroke="#c49c59" fill="none" connectorname="5.0"/>
 <circle xmlns="http://www.w3.org/2000/svg" stroke-width="1.44" r="1.98" id="connector6pin" cx="50.4" cy="7.2" stroke="#c49c59" fill="none" connectorname="6.0"/>
 <circle xmlns="http://www.w3.org/2000/svg" stroke-width="1.44" r="1.98" id="connector1000pin" cx="7.2" cy="14.4" stroke="#c49c59" fill="none" connectorname="0.1"/>
 <circle xmlns="http://www.w3.org/2000/svg" stroke-width="1.44" r="1.98" id="connector1001pin" cx="14.4" cy="14.4" stroke="#c49c59" fill="none" connectorname="1.1"/>
 <circle xmlns="http://www.w3.org/2000/svg" stroke-width="1.44" r="1.98" id="connector1002pin" cx="21.6" cy="14.4" stroke="#c49c59" fill="none" connectorname="2.1"/>
 <circle xmlns="http://www.w3.org/2000/svg" stroke-width="1.44" r="1.98" id="connector1003pin" cx="28.8" cy="14.4" stroke="#c49c59" fill="none" connectorname="3.1"/>
 <circle xmlns="http://www.w3.org/2000/svg" stroke-width="1.44" r="1.98" id="connector1004pin" cx="36" cy="14.4" stroke="#c49c59" fill="none" connectorname="4.1"/>
 <circle xmlns="http://www.w3.org/2000/svg" stroke-width="1.44" r="1.98" id="connector1005pin" cx="43.2" cy="14.4" stroke="#c49c59" fill="none" connectorname="5.1"/>
 <circle xmlns="http://www.w3.org/2000/svg" stroke-width="1.44" r="1.98" id="connector1006pin" cx="50.4" cy="14.4" stroke="#c49c59" fill="none" connectorname="6.1"/>
 <circle xmlns="http://www.w3.org/2000/svg" stroke-width="1.44" r="1.98" id="connector2000pin" cx="7.2" cy="21.6" stroke="#c49c59" fill="none" connectorname="0.2"/>
 <circle xmlns="http://www.w3.org/2000/svg" stroke-width="1.44" r="1.98" id="connector2001pin" cx="14.4" cy="21.6" stroke="#c49c59" fill="none" connectorname="1.2"/>
 <circle xmlns="http://www.w3.org/2000/svg" stroke-width="1.44" r="1.98" id="connector2002pin" cx="21.6" cy="21.6" stroke="#c49c59" fill="none" connectorname="2.2"/>
 <circle xmlns="http://www.w3.org/2000/svg" stroke-width="1.44" r="1.98" id="connector2003pin" cx="28.8" cy="21.6" stroke="#c49c59" fill="none" connectorname="3.2"/>
 <circle xmlns="http://www.w3.org/2000/svg" stroke-width="1.44" r="1.98" id="connector2004pin" cx="36" cy="21.6" stroke="#c49c59" fill="none" connectorname="4.2"/>
 <circle xmlns="http://www.w3.org/2000/svg" stroke-width="1.44" r="1.98" id="connector2005pin" cx="43.2" cy="21.6" stroke="#c49c59" fill="none" connectorname="5.2"/>
 <circle xmlns="http://www.w3.org/2000/svg" stroke-width="1.44" r="1.98" id="connector2006pin" cx="50.4" cy="21.6" stroke="#c49c59" fill="none" connectorname="6.2"/>
 <circle xmlns="http://www.w3.org/2000/svg" stroke-width="1.44" r="1.98" id="connector3000pin" cx="7.2" cy="28.8" stroke="#c49c59" fill="none" connectorname="0.3"/>
 <circle xmlns="http://www.w3.org/2000/svg" stroke-width="1.44" r="1.98" id="connector3001pin" cx="14.4" cy="28.8" stroke="#c49c59" fill="none" connectorname="1.3"/>
 <circle xmlns="http://www.w3.org/2000/svg" stroke-width="1.44" r="1.98" id="connector3002pin" cx="21.6" cy="28.8" stroke="#c49c59" fill="none" connectorname="2.3"/>
 <circle xmlns="http://www.w3.org/2000/svg" stroke-width="1.44" r="1.98" id="connector3003pin" cx="28.8" cy="28.8" stroke="#c49c59" fill="none" connectorname="3.3"/>
 <circle xmlns="http://www.w3.org/2000/svg" stroke-width="1.44" r="1.98" id="connector3004pin" cx="36" cy="28.8" stroke="#c49c59" fill="none" connectorname="4.3"/>
 <circle xmlns="http://www.w3.org/2000/svg" stroke-width="1.44" r="1.98" id="connector3005pin" cx="43.2" cy="28.8" stroke="#c49c59" fill="none" connectorname="5.3"/>
 <circle xmlns="http://www.w3.org/2000/svg" stroke-width="1.44" r="1.98" id="connector3006pin" cx="50.4" cy="28.8" stroke="#c49c59" fill="none" connectorname="6.3"/>
 <circle xmlns="http://www.w3.org/2000/svg" stroke-width="1.44" r="1.98" id="connector4000pin" cx="7.2" cy="36" stroke="#c49c59" fill="none" connectorname="0.4"/>
 <circle xmlns="http://www.w3.org/2000/svg" stroke-width="1.44" r="1.98" id="connector4001pin" cx="14.4" cy="36" stroke="#c49c59" fill="none" connectorname="1.4"/>
 <circle xmlns="http://www.w3.org/2000/svg" stroke-width="1.44" r="1.98" id="connector4002pin" cx="21.6" cy="36" stroke="#c49c59" fill="none" connectorname="2.4"/>
 <circle xmlns="http://www.w3.org/2000/svg" stroke-width="1.44" r="1.98" id="connector4003pin" cx="28.8" cy="36" stroke="#c49c59" fill="none" connectorname="3.4"/>
 <circle xmlns="http://www.w3.org/2000/svg" stroke-width="1.44" r="1.98" id="connector4004pin" cx="36" cy="36" stroke="#c49c59" fill="none" connectorname="4.4"/>
 <circle xmlns="http://www.w3.org/2000/svg" stroke-width="1.44" r="1.98" id="connector4005pin" cx="43.2" cy="36" stroke="#c49c59" fill="none" connectorname="5.4"/>
 <circle xmlns="http://www.w3.org/2000/svg" stroke-width="1.44" r="1.98" id="connector4006pin" cx="50.4" cy="36" stroke="#c49c59" fill="none" connectorname="6.4"/>
 <circle xmlns="http://www.w3.org/2000/svg" stroke-width="1.44" r="1.98" id="connector5000pin" cx="7.2" cy="43.2" stroke="#c49c59" fill="none" connectorname="0.5"/>
 <circle xmlns="http://www.w3.org/2000/svg" stroke-width="1.44" r="1.98" id="connector5001pin" cx="14.4" cy="43.2" stroke="#c49c59" fill="none" connectorname="1.5"/>
 <circle xmlns="http://www.w3.org/2000/svg" stroke-width="1.44" r="1.98" id="connector5002pin" cx="21.6" cy="43.2" stroke="#c49c59" fill="none" connectorname="2.5"/>
 <circle xmlns="http://www.w3.org/2000/svg" stroke-width="1.44" r="1.98" id="connector5003pin" cx="28.8" cy="43.2" stroke="#c49c59" fill="none" connectorname="3.5"/>
 <circle xmlns="http://www.w3.org/2000/svg" stroke-width="1.44" r="1.98" id="connector5004pin" cx="36" cy="43.2" stroke="#c49c59" fill="none" connectorname="4.5"/>
 <circle xmlns="http://www.w3.org/2000/svg" stroke-width="1.44" r="1.98" id="connector5005pin" cx="43.2" cy="43.2" stroke="#c49c59" fill="none" connectorname="5.5"/>
 <circle xmlns="http://www.w3.org/2000/svg" stroke-width="1.44" r="1.98" id="connector5006pin" cx="50.4" cy="43.2" stroke="#c49c59" fill="none" connectorname="6.5"/>
 <circle xmlns="http://www.w3.org/2000/svg" stroke-width="1.44" r="1.98" id="connector6000pin" cx="7.2" cy="50.4" stroke="#c49c59" fill="none" connectorname="0.6"/>
 <circle xmlns="http://www.w3.org/2000/svg" stroke-width="1.44" r="1.98" id="connector6001pin" cx="14.4" cy="50.4" stroke="#c49c59" fill="none" connectorname="1.6"/>
 <circle xmlns="http://www.w3.org/2000/svg" stroke-width="1.44" r="1.98" id="connector6002pin" cx="21.6" cy="50.4" stroke="#c49c59" fill="none" connectorname="2.6"/>
 <circle xmlns="http://www.w3.org/2000/svg" stroke-width="1.44" r="1.98" id="connector6003pin" cx="28.8" cy="50.4" stroke="#c49c59" fill="none" connectorname="3.6"/>
 <circle xmlns="http://www.w3.org/2000/svg" stroke-width="1.44" r="1.98" id="connector6004pin" cx="36" cy="50.4" stroke="#c49c59" fill="none" connectorname="4.6"/>
 <circle xmlns="http://www.w3.org/2000/svg" stroke-width="1.44" r="1.98" id="connector6005pin" cx="43.2" cy="50.4" stroke="#c49c59" fill="none" connectorname="5.6"/>
 <circle xmlns="http://www.w3.org/2000/svg" stroke-width="1.44" r="1.98" id="connector6006pin" cx="50.4" cy="50.4" stroke="#c49c59" fill="none" connectorname="6.6"/>
<path stroke='none' stroke-width='0' fill='#c49c59' d='m4.5,14.4 5.4,0 0,7.2 -5.4,0z m0,7.2a3.6,3.6  0,1,0 0,-7.2z  m5.4,-7.2a3.6,3.6 0,1,0 0,7.2z'/>
<path stroke='none' stroke-width='0' fill='#c49c59' d='m11.7,14.4 5.4,0 0,7.2 -5.4,0z m0,7.2a3.6,3.6  0,1,0 0,-7.2z  m5.4,-7.2a3.6,3.6 0,1,0 0,7.2z'/>
<path stroke='none' stroke-width='0' fill='#c49c59' d='m18.9,14.4 5.4,0 0,7.2 -5.4,0z m0,7.2a3.6,3.6  0,1,0 0,-7.2z  m5.4,-7.2a3.6,3.6 0,1,0 0,7.2z'/>
<path stroke='none' stroke-width='0' fill='#c49c59' d='m26.1,14.4 5.4,0 0,7.2 -5.4,0z m0,7.2a3.6,3.6  0,1,0 0,-7.2z  m5.4,-7.2a3.6,3.6 0,1,0 0,7.2z'/>
<path stroke='none' stroke-width='0' fill='#c49c59' d='m33.3,14.4 5.4,0 0,7.2 -5.4,0z m0,7.2a3.6,3.6  0,1,0 0,-7.2z  m5.4,-7.2a3.6,3.6 0,1,0 0,7.2z'/>
<path stroke='none' stroke-width='0' fill='#c49c59' d='m40.5,14.4 5.4,0 0,7.2 -5.4,0z m0,7.2a3.6,3.6  0,1,0 0,-7.2z  m5.4,-7.2a3.6,3.6 0,1,0 0,7.2z'/>
<path stroke='none' stroke-width='0' fill='#c49c59' d='m47.7,14.4 5.4,0 0,7.2 -5.4,0z m0,7.2a3.6,3.6  0,1,0 0,-7.2z  m5.4,-7.2a3.6,3.6 0,1,0 0,7.2z'/>
<path stroke='none' stroke-width='0' fill='#c49c59' d='m4.5,28.8 5.4,0 0,7.2 -5.4,0z m0,7.2a3.6,3.6  0,1,0 0,-7.2z  m5.4,-7.2a3.6,3.6 0,1,0 0,7.2z'/>
<path stroke='none' stroke-width='0' fill='#c49c59' d='m11.7,28.8 5.4,0 0,7.2 -5.4,0z m0,7.2a3.6,3.6  0,1,0 0,-7.2z  m5.4,-7.2a3.6,3.6 0,1,0 0,7.2z'/>
<path stroke='none' stroke-width='0' fill='#c49c59' d='m18.9,28.8 5.4,0 0,7.2 -5.4,0z m0,7.2a3.6,3.6  0,1,0 0,-7.2z  m5.4,-7.2a3.6,3.6 0,1,0 0,7.2z'/>
<path stroke='none' stroke-width='0' fill='#c49c59' d='m26.1,28.8 5.4,0 0,7.2 -5.4,0z m0,7.2a3.6,3.6  0,1,0 0,-7.2z  m5.4,-7.2a3.6,3.6 0,1,0 0,7.2z'/>
<path stroke='none' stroke-width='0' fill='#c49c59' d='m33.3,28.8 5.4,0 0,7.2 -5.4,0z m0,7.2a3.6,3.6  0,1,0 0,-7.2z  m5.4,-7.2a3.6,3.6 0,1,0 0,7.2z'/>
<path stroke='none' stroke-width='0' fill='#c49c59' d='m40.5,28.8 5.4,0 0,7.2 -5.4,0z m0,7.2a3.6,3.6  0,1,0 0,-7.2z  m5.4,-7.2a3.6,3.6 0,1,0 0,7.2z'/>
<path stroke='none' stroke-width='0' fill='#c49c59' d='m47.7,28.8 5.4,0 0,7.2 -5.4,0z m0,7.2a3.6,3.6  0,1,0 0,-7.2z  m5.4,-7.2a3.6,3.6 0,1,0 0,7.2z'/>
<path stroke='none' stroke-width='0' fill='#c49c59' d='m4.5,43.2 5.4,0 0,7.2 -5.4,0z m0,7.2a3.6,3.6  0,1,0 0,-7.2z  m5.4,-7.2a3.6,3.6 0,1,0 0,7.2z'/>
<path stroke='none' stroke-width='0' fill='#c49c59' d='m11.7,43.2 5.4,0 0,7.2 -5.4,0z m0,7.2a3.6,3.6  0,1,0 0,-7.2z  m5.4,-7.2a3.6,3.6 0,1,0 0,7.2z'/>
<path stroke='none' stroke-width='0' fill='#c49c59' d='m18.9,43.2 5.4,0 0,7.2 -5.4,0z m0,7.2a3.6,3.6  0,1,0 0,-7.2z  m5.4,-7.2a3.6,3.6 0,1,0 0,7.2z'/>
<path stroke='none' stroke-width='0' fill='#c49c59' d='m26.1,43.2 5.4,0 0,7.2 -5.4,0z m0,7.2a3.6,3.6  0,1,0 0,-7.2z  m5.4,-7.2a3.6,3.6 0,1,0 0,7.2z'/>
<path stroke='none' stroke-width='0' fill='#c49c59' d='m33.3,43.2 5.4,0 0,7.2 -5.4,0z m0,7.2a3.6,3.6  0,1,0 0,-7.2z  m5.4,-7.2a3.6,3.6 0,1,0 0,7.2z'/>
<path stroke='none' stroke-width='0' fill='#c49c59' d='m4.5,7.2 5.4,0 0,7.2 -5.4,0z m0,7.2a3.6,3.6  0,1,0 0,-7.2z  m5.4,-7.2a3.6,3.6 0,1,0 0,7.2z'/>
<path stroke='none' stroke-width='0' fill='#c49c59' d='m40.5,43.2 5.4,0 0,7.2 -5.4,0z m0,7.2a3.6,3.6  0,1,0 0,-7.2z  m5.4,-7.2a3.6,3.6 0,1,0 0,7.2z'/>
<path stroke='none' stroke-width='0' fill='#c49c59' d='m11.7,7.2 5.4,0 0,7.2 -5.4,0z m0,7.2a3.6,3.6  0,1,0 0,-7.2z  m5.4,-7.2a3.6,3.6 0,1,0 0,7.2z'/>
<path stroke='none' stroke-width='0' fill='#c49c59' d='m4.5,21.6 5.4,0 0,7.2 -5.4,0z m0,7.2a3.6,3.6  0,1,0 0,-7.2z  m5.4,-7.2a3.6,3.6 0,1,0 0,7.2z'/>
<path stroke='none' stroke-width='0' fill='#c49c59' d='m11.7,21.6 5.4,0 0,7.2 -5.4,0z m0,7.2a3.6,3.6  0,1,0 0,-7.2z  m5.4,-7.2a3.6,3.6 0,1,0 0,7.2z'/>
<path stroke='none' stroke-width='0' fill='#c49c59' d='m18.9,7.2 5.4,0 0,7.2 -5.4,0z m0,7.2a3.6,3.6  0,1,0 0,-7.2z  m5.4,-7.2a3.6,3.6 0,1,0 0,7.2z'/>
<path stroke='none' stroke-width='0' fill='#c49c59' d='m47.7,43.2 5.4,0 0,7.2 -5.4,0z m0,7.2a3.6,3.6  0,1,0 0,-7.2z  m5.4,-7.2a3.6,3.6 0,1,0 0,7.2z'/>
<path stroke='none' stroke-width='0' fill='#c49c59' d='m18.9,21.6 5.4,0 0,7.2 -5.4,0z m0,7.2a3.6,3.6  0,1,0 0,-7.2z  m5.4,-7.2a3.6,3.6 0,1,0 0,7.2z'/>
<path stroke='none' stroke-width='0' fill='#c49c59' d='m26.1,7.2 5.4,0 0,7.2 -5.4,0z m0,7.2a3.6,3.6  0,1,0 0,-7.2z  m5.4,-7.2a3.6,3.6 0,1,0 0,7.2z'/>
<path stroke='none' stroke-width='0' fill='#c49c59' d='m26.1,21.6 5.4,0 0,7.2 -5.4,0z m0,7.2a3.6,3.6  0,1,0 0,-7.2z  m5.4,-7.2a3.6,3.6 0,1,0 0,7.2z'/>
<path stroke='none' stroke-width='0' fill='#c49c59' d='m33.3,7.2 5.4,0 0,7.2 -5.4,0z m0,7.2a3.6,3.6  0,1,0 0,-7.2z  m5.4,-7.2a3.6,3.6 0,1,0 0,7.2z'/>
<path stroke='none' stroke-width='0' fill='#c49c59' d='m33.3,21.6 5.4,0 0,7.2 -5.4,0z m0,7.2a3.6,3.6  0,1,0 0,-7.2z  m5.4,-7.2a3.6,3.6 0,1,0 0,7.2z'/>
<path stroke='none' stroke-width='0' fill='#c49c59' d='m40.5,7.2 5.4,0 0,7.2 -5.4,0z m0,7.2a3.6,3.6  0,1,0 0,-7.2z  m5.4,-7.2a3.6,3.6 0,1,0 0,7.2z'/>
<path stroke='none' stroke-width='0' fill='#c49c59' d='m40.5,21.6 5.4,0 0,7.2 -5.4,0z m0,7.2a3.6,3.6  0,1,0 0,-7.2z  m5.4,-7.2a3.6,3.6 0,1,0 0,7.2z'/>
<path stroke='none' stroke-width='0' fill='#c49c59' d='m47.7,7.2 5.4,0 0,7.2 -5.4,0z m0,7.2a3.6,3.6  0,1,0 0,-7.2z  m5.4,-7.2a3.6,3.6 0,1,0 0,7.2z'/>
<path stroke='none' stroke-width='0' fill='#c49c59' d='m47.7,21.6 5.4,0 0,7.2 -5.4,0z m0,7.2a3.6,3.6  0,1,0 0,-7.2z  m5.4,-7.2a3.6,3.6 0,1,0 0,7.2z'/>
</g>
</g></g></g><path stroke='#8c8c8c' stroke-width='2.0952' stroke-linecap='round' stroke-linejoin='round' fill='none' d='M42.2932,43.5593L43.3408,43.5593' />
<path stroke='#8c8c8c' stroke-width='2.0952' stroke-linecap='round' stroke-linejoin='round' fill='none' d='M15.5834,43.5593L7.2,43.4667' />
<g partID='57970'><g transform='translate(44.3884,47.1917)' ><g transform='matrix(-1,0,0,-1,0,0)'  ><g xmlns="http://www.w3.org/2000/svg" id="breadboard">
 <rect xmlns="http://www.w3.org/2000/svg" height="0.72" width="0.72" id="connector0pin" x="0.36" y="2.5848" fill="none"/>
 <rect xmlns="http://www.w3.org/2000/svg" height="0.72" width="0.72" id="connector1pin" x="29.8202" y="2.5848" fill="none"/>
 <line xmlns="http://www.w3.org/2000/svg" stroke-width="2.0952" stroke-linecap="round" id="connector0leg" y1="3.6324" y2="3.6324" stroke="#8C8C8C" x1="1.0476" fill="none" x2="2.0952"/>
 <line xmlns="http://www.w3.org/2000/svg" stroke-width="2.0952" stroke-linecap="round" id="connector1leg" y1="3.6324" y2="3.6324" stroke="#8C8C8C" x1="29.8526" fill="none" x2="28.805"/>
 <path xmlns="http://www.w3.org/2000/svg" stroke-width="2.0952" d="M1.0476,3.6324l28.3666,0" stroke="#8C8C8C" fill="none"/>
 <path xmlns="http://www.w3.org/2000/svg" id="body" d="M10.2478,0.49536c-0.36,-0.1656,-0.9792,-0.2952,-1.3752,-0.2952l-1.9872,0c-0.396,0,-0.72,0.324,-0.72,0.72l0,5.35608c0,0.39672,0.324,0.72,0.72,0.72l1.9872,0c0.396,0,1.0152,-0.13608,1.3752,-0.2952l0.072,-0.03528c0.36,-0.1656,0.9792,-0.2952,1.3752,-0.2952l7.1856,0c0.39672,0,1.01448,0.13608,1.37448,0.2952l0.07272,0.03528c0.36,0.1656,0.97776,0.2952,1.3752,0.2952l1.9872,0c0.39744,0,0.72,-0.32328,0.72,-0.72L24.4102,0.92016c0,-0.396,-0.32256,-0.72,-0.72,-0.72l-1.9872,0c-0.39744,0,-1.0152,0.1368,-1.3752,0.2952l-0.07272,0.036c-0.36,0.1656,-0.97776,0.2952,-1.37448,0.2952l-7.1856,0c-0.396,0,-1.0152,-0.1368,-1.3752,-0.2952L10.2478,0.49536z" fill="#D9B477"/>
 <rect xmlns="http://www.w3.org/2000/svg" height="6.79536" width="0.70272" id="gold_band" x="22.019" y="0.19368" fill="#ad9f4e"/>
 <rect xmlns="http://www.w3.org/2000/svg" height="5.5368" width="1.8504" id="band_rd_multiplier" x="16.1726" y="0.82656" fill="#00a33d"/>
 <rect xmlns="http://www.w3.org/2000/svg" height="5.5368" width="1.8504" id="band_2_nd" x="12.4726" y="0.82656" fill="#000000"/>
 <path xmlns="http://www.w3.org/2000/svg" id="band_1_st" d="M10.6286,0.63936c-0.1152,-0.036,-0.2232,-0.072,-0.3096,-0.1152l-0.072,-0.036c-0.36,-0.16488,-0.9792,-0.2952,-1.3752,-0.2952l-0.0864,0l0,6.79608l0.0864,0c0.396,0,1.0152,-0.13608,1.3752,-0.2952l0.072,-0.03528c0.0864,-0.04464,0.1944,-0.07992,0.3096,-0.1152L10.6286,0.63936z" fill="#8a3d06"/>
 <path xmlns="http://www.w3.org/2000/svg" id="Shadow" d="M23.711,4.0896L23.711,4.0896c0,0.37944,-0.13032,0.69912,-0.2952,0.69912l-1.9224,0c-0.38016,0,-0.97776,-0.05616,-1.33272,-0.1224L20.088,4.65048c-0.34488,-0.0648,-0.94896,-0.1224,-1.33344,-0.1224L11.808,4.52808c-0.3816,0,-0.9792,0.0576,-1.332,0.1224l-0.072,0.01512c-0.3456,0.06552,-0.9432,0.1224,-1.332,0.1224l-0.3168,0l-1.0008,0l-0.3096,0c-0.3816,0,-0.6984,0.29376,-0.6984,0.64512l0,0.24696L6.7464,5.8392l0,0.1728c0,0.36,0.3168,0.64512,0.6984,0.64512l1.62,0c0.3816,0,0.9792,-0.1224,1.332,-0.26712l0.072,-0.02808c0.3456,-0.14112,0.9504,-0.26496,1.332,-0.26496l6.94656,0c0.37944,0,0.97704,0.12384,1.33416,0.26568l0.07416,0.02808c0.34488,0.14472,0.94464,0.26712,1.33344,0.26712l2.2248,0c0.38088,0,0.69912,-0.2952,0.69912,-0.64512L24.413,5.472L24.413,4.49928L24.413,2.65536C24.1358,2.76336,23.711,3.06576,23.711,4.0896z" opacity="0.3"/>
 <rect xmlns="http://www.w3.org/2000/svg" height="3.15288" width="0.70272" id="ShadowExtra" x="22.019" y="3.48336" opacity="0.4"/>
 <path xmlns="http://www.w3.org/2000/svg" id="ReflexRight" d="M19.751,1.08576c0.22968,0,0.49104,-0.1008,0.6624,-0.1728c0.2016,-0.0792,0.57672,-0.144,0.96624,-0.144l1.46088,0c0.22464,0,0.22464,0.2448,0.22464,0.3744c0,0.1296,-0.01512,0.3816,-0.22464,0.3816l-3.06,0c-0.10728,0,-0.2304,-0.1152,-0.2304,-0.22392C19.5566,1.21536,19.6286,1.08576,19.751,1.08576z" fill="#FFFFFF" opacity="0.25"/>
 <circle xmlns="http://www.w3.org/2000/svg" r="0.432" id="ReflexLeft" cx="6.99984" cy="1.13616" fill="#FFFFFF" opacity="0.35"/>
 <rect xmlns="http://www.w3.org/2000/svg" height="1.62" width="0.70272" id="Reflex_gold" x="22.019" y="0.42336" fill="#FFFF33" opacity="0.5"/>
 <rect xmlns="http://www.w3.org/2000/svg" height="0.7488" width="0.70272" id="Reflex_extra" x="22.019" y="0.78336" fill="#FFFFFF" opacity="0.5"/>
</g>
</g></g></g><g partID='854123390'><g transform='translate(54.0049,53.9628)' ><g transform='matrix(-1,0,0,-1,0,0)'  ><g xmlns="http://www.w3.org/2000/svg" id="breadboard">
<rect height="7.2" width="50.4" xmlns="http://www.w3.org/2000/svg" fill="#404040"/>
<rect height="2.78312" width="2.78312" xmlns="http://www.w3.org/2000/svg" id="connector0pin" x="2.20843" y="2.20843" fill="none"/>
<g height="2.25658" width="2.15829" xmlns="http://www.w3.org/2000/svg" id="connector0terminal" x="2.51834" y="2.47054" fill="none"/>
<rect height="2.78312" width="2.78312" xmlns="http://www.w3.org/2000/svg" x="2.20843" y="2.20843"/>
<polygon xmlns="http://www.w3.org/2000/svg" fill="#2A2A29" points="1.18445,1.18445,2.20843,2.20843,4.99156,2.20843,6.01654,1.18445"/>
<polygon xmlns="http://www.w3.org/2000/svg" fill="#474747" points="6.01654,1.18445,4.99156,2.20843,4.99156,4.99156,6.01654,6.01654"/>
<polygon xmlns="http://www.w3.org/2000/svg" fill="#595959" points="6.01654,6.01654,4.99156,4.99156,2.20843,4.99156,1.18445,6.01654"/>
<polygon xmlns="http://www.w3.org/2000/svg" fill="#373737" points="1.18445,6.01654,2.20843,4.99156,2.20843,2.20843,1.18445,1.18445"/>
<rect height="2.78312" width="2.78312" xmlns="http://www.w3.org/2000/svg" id="connector1pin" x="9.40846" y="2.20843" fill="none"/>
<g height="2.25658" width="2.15829" xmlns="http://www.w3.org/2000/svg" id="connector1terminal" x="9.71834" y="2.47054" fill="none"/>
<rect height="2.78312" width="2.78312" xmlns="http://www.w3.org/2000/svg" x="9.40846" y="2.20843"/>
<polygon xmlns="http://www.w3.org/2000/svg" fill="#2A2A29" points="8.38447,1.18445,9.40846,2.20843,12.1915,2.20843,13.2165,1.18445"/>
<polygon xmlns="http://www.w3.org/2000/svg" fill="#474747" points="13.2165,1.18445,12.1915,2.20843,12.1915,4.99156,13.2165,6.01654"/>
<polygon xmlns="http://www.w3.org/2000/svg" fill="#595959" points="13.2165,6.01654,12.1915,4.99156,9.40846,4.99156,8.38447,6.01654"/>
<polygon xmlns="http://www.w3.org/2000/svg" fill="#373737" points="8.38447,6.01654,9.40846,4.99156,9.40846,2.20843,8.38447,1.18445"/>
<rect height="2.78312" width="2.78312" xmlns="http://www.w3.org/2000/svg" id="connector2pin" x="16.6085" y="2.20843" fill="none"/>
<g height="2.25658" width="2.15829" xmlns="http://www.w3.org/2000/svg" id="connector2terminal" x="16.9183" y="2.47054" fill="none"/>
<rect height="2.78312" width="2.78312" xmlns="http://www.w3.org/2000/svg" x="16.6085" y="2.20843"/>
<polygon xmlns="http://www.w3.org/2000/svg" fill="#2A2A29" points="15.5845,1.18445,16.6085,2.20843,19.3915,2.20843,20.4165,1.18445"/>
<polygon xmlns="http://www.w3.org/2000/svg" fill="#474747" points="20.4165,1.18445,19.3915,2.20843,19.3915,4.99156,20.4165,6.01654"/>
<polygon xmlns="http://www.w3.org/2000/svg" fill="#595959" points="20.4165,6.01654,19.3915,4.99156,16.6085,4.99156,15.5845,6.01654"/>
<polygon xmlns="http://www.w3.org/2000/svg" fill="#373737" points="15.5845,6.01654,16.6085,4.99156,16.6085,2.20843,15.5845,1.18445"/>
<rect height="2.78312" width="2.78312" xmlns="http://www.w3.org/2000/svg" id="connector3pin" x="23.8085" y="2.20843" fill="none"/>
<g height="2.25658" width="2.15829" xmlns="http://www.w3.org/2000/svg" id="connector3terminal" x="24.1183" y="2.47054" fill="none"/>
<rect height="2.78312" width="2.78312" xmlns="http://www.w3.org/2000/svg" x="23.8085" y="2.20843"/>
<polygon xmlns="http://www.w3.org/2000/svg" fill="#2A2A29" points="22.7845,1.18445,23.8085,2.20843,26.5915,2.20843,27.6165,1.18445"/>
<polygon xmlns="http://www.w3.org/2000/svg" fill="#474747" points="27.6165,1.18445,26.5915,2.20843,26.5915,4.99156,27.6165,6.01654"/>
<polygon xmlns="http://www.w3.org/2000/svg" fill="#595959" points="27.6165,6.01654,26.5915,4.99156,23.8085,4.99156,22.7845,6.01654"/>
<polygon xmlns="http://www.w3.org/2000/svg" fill="#373737" points="22.7845,6.01654,23.8085,4.99156,23.8085,2.20843,22.7845,1.18445"/>
<rect height="2.78312" width="2.78312" xmlns="http://www.w3.org/2000/svg" id="connector4pin" x="31.0085" y="2.20843" fill="none"/>
<g height="2.25658" width="2.15829" xmlns="http://www.w3.org/2000/svg" id="connector4terminal" x="31.3183" y="2.47054" fill="none"/>
<rect height="2.78312" width="2.78312" xmlns="http://www.w3.org/2000/svg" x="31.0085" y="2.20843"/>
<polygon xmlns="http://www.w3.org/2000/svg" fill="#2A2A29" points="29.9845,1.18445,31.0085,2.20843,33.7915,2.20843,34.8165,1.18445"/>
<polygon xmlns="http://www.w3.org/2000/svg" fill="#474747" points="34.8165,1.18445,33.7915,2.20843,33.7915,4.99156,34.8165,6.01654"/>
<polygon xmlns="http://www.w3.org/2000/svg" fill="#595959" points="34.8165,6.01654,33.7915,4.99156,31.0085,4.99156,29.9845,6.01654"/>
<polygon xmlns="http://www.w3.org/2000/svg" fill="#373737" points="29.9845,6.01654,31.0085,4.99156,31.0085,2.20843,29.9845,1.18445"/>
<rect height="2.78312" width="2.78312" xmlns="http://www.w3.org/2000/svg" id="connector5pin" x="38.2085" y="2.20843" fill="none"/>
<g height="2.25658" width="2.15829" xmlns="http://www.w3.org/2000/svg" id="connector5terminal" x="38.5183" y="2.47054" fill="none"/>
<rect height="2.78312" width="2.78312" xmlns="http://www.w3.org/2000/svg" x="38.2085" y="2.20843"/>
<polygon xmlns="http://www.w3.org/2000/svg" fill="#2A2A29" points="37.1845,1.18445,38.2085,2.20843,40.9915,2.20843,42.0165,1.18445"/>
<polygon xmlns="http://www.w3.org/2000/svg" fill="#474747" points="42.0165,1.18445,40.9915,2.20843,40.9915,4.99156,42.0165,6.01654"/>
<polygon xmlns="http://www.w3.org/2000/svg" fill="#595959" points="42.0165,6.01654,40.9915,4.99156,38.2085,4.99156,37.1845,6.01654"/>
<polygon xmlns="http://www.w3.org/2000/svg" fill="#373737" points="37.1845,6.01654,38.2085,4.99156,38.2085,2.20843,37.1845,1.18445"/>
<rect height="2.78312" width="2.78312" xmlns="http://www.w3.org/2000/svg" id="connector6pin" x="45.4085" y="2.20843" fill="none"/>
<g height="2.25658" width="2.15829" xmlns="http://www.w3.org/2000/svg" id="connector6terminal" x="45.7183" y="2.47054" fill="none"/>
<rect height="2.78312" width="2.78312" xmlns="http://www.w3.org/2000/svg" x="45.4085" y="2.20843"/>
<polygon xmlns="http://www.w3.org/2000/svg" fill="#2A2A29" points="44.3845,1.18445,45.4085,2.20843,48.1915,2.20843,49.2165,1.18445"/>
<polygon xmlns="http://www.w3.org/2000/svg" fill="#474747" points="49.2165,1.18445,48.1915,2.20843,48.1915,4.99156,49.2165,6.01654"/>
<polygon xmlns="http://www.w3.org/2000/svg" fill="#595959" points="49.2165,6.01654,48.1915,4.99156,45.4085,4.99156,44.3845,6.01654"/>
<polygon xmlns="http://www.w3.org/2000/svg" fill="#373737" points="44.3845,6.01654,45.4085,4.99156,45.4085,2.20843,44.3845,1.18445"/>
</g>
</g></g></g><path stroke='#8c8c8c' stroke-width='1.988' stroke-linecap='round' stroke-linejoin='round' fill='none' d='M27.5939,36.195L6.93333,36.2667' />
<path stroke='#8c8c8c' stroke-width='1.988' stroke-linecap='round' stroke-linejoin='round' fill='none' d='M34.796,36.195L35.7333,36.2667' />
<g partID='58030'><g transform='translate(23.0669,6.98796)' ><g xmlns="http://www.w3.org/2000/svg" id="breadboard">
 <rect xmlns="http://www.w3.org/2000/svg" height="0.72" width="2.151" id="connector0pin" x="3.45101" y="25.421" fill="none"/>
 <rect xmlns="http://www.w3.org/2000/svg" height="0.72" width="2.154" id="connector1pin" x="10.651" y="25.421" fill="none"/>
 <g xmlns="http://www.w3.org/2000/svg" stroke-width="1.988" stroke-linecap="round" id="connector0leg" y1="29.207" y2="53.822" stroke="#8C8C8C" fill="none" x1="4.527" x2="4.527"/>
 <g xmlns="http://www.w3.org/2000/svg" stroke-width="1.988" stroke-linecap="round" id="connector1leg" y1="29.207" y2="53.822" stroke="#8C8C8C" fill="none" x1="11.729" x2="11.729"/>
 <rect xmlns="http://www.w3.org/2000/svg" height="9.82801" width="2.151" x="3.45101" y="19.379" fill="#8C8C8C"/>
 <path xmlns="http://www.w3.org/2000/svg" d="M12.805,29.207c0,-1.174,-1.065,-2.103,-2.089,-2.992c-0.416001,-0.367,-1.199,-1.001,-1.199,-1.424L9.51701,19.32L7.35601,19.32L7.35601,25.1c0,1.059,0.947001,1.879,1.946,2.748c0.444001,0.377,1.349,1.25,1.349,1.771" fill="#8C8C8C"/>
 <g xmlns="http://www.w3.org/2000/svg" id="g12">
  <path xmlns="http://www.w3.org/2000/svg" id="color_path14" d="M11.694,14.099L11.694,9.80001c0,-2.845,-2.303,-5.153,-5.15101,-5.153C3.69801,4.647,1.39,6.951,1.39,9.80001l0,9.92101c1.071,1.201,2.979,2.001,5.15301,2.001c3.35901,0,6.08301,-1.902,6.08301,-4.26l0,-1.107C12.626,15.525,12.281,14.754,11.694,14.099z" enable-background="new    " fill="#cccccc" opacity="0.3"/>
  <path xmlns="http://www.w3.org/2000/svg" id="path16" d="M11.694,14.099L11.694,9.80001c0,-2.845,-2.303,-5.153,-5.15101,-5.153C3.69801,4.647,1.39,6.951,1.39,9.80001l0,9.92101c1.071,1.201,2.979,2.001,5.15301,2.001c3.35901,0,6.08301,-1.902,6.08301,-4.26l0,-1.107C12.626,15.525,12.281,14.754,11.694,14.099z" enable-background="new    " fill="#E6E6E6" opacity="0.5"/>
  <path xmlns="http://www.w3.org/2000/svg" id="path18" d="M11.694,14.099l0,2.257c0,1.991,-2.301,3.608,-5.15101,3.608c-2.845,0,-5.15301,-1.612,-5.15301,-3.608l0,2.257l0,1.109c1.071,1.2,2.979,2,5.15301,2c3.35901,0,6.08301,-1.902,6.08301,-4.26l0,-1.106C12.626,15.525,12.281,14.754,11.694,14.099z" enable-background="new    " fill="#D1D1D1" opacity="0.9"/>
  <path xmlns="http://www.w3.org/2000/svg" id="color_path20" d="M11.694,14.099l0,2.257c0,1.991,-2.301,3.608,-5.15101,3.608c-2.845,0,-5.15301,-1.612,-5.15301,-3.608l0,2.257l0,1.109c1.071,1.2,2.979,2,5.15301,2c3.35901,0,6.08301,-1.902,6.08301,-4.26l0,-1.106C12.626,15.525,12.281,14.754,11.694,14.099z" enable-background="new    " fill="#cccccc" opacity="0.7"/>
  <path xmlns="http://www.w3.org/2000/svg" id="color_path22" d="M11.694,14.099l0,2.257c0,1.991,-2.301,3.608,-5.15101,3.608c-2.845,0,-5.15301,-1.612,-5.15301,-3.608l0,2.257c1.071,1.2,2.979,2.001,5.15301,2.001c3.35901,0,6.08301,-1.903,6.08301,-4.259C12.626,15.525,12.281,14.754,11.694,14.099z" enable-background="new    " fill="#cccccc" opacity="0.25"/>
  <ellipse xmlns="http://www.w3.org/2000/svg" rx="5.15301" ry="3.606" id="ellipse24" enable-background="new    " cx="6.54301" cy="16.356" fill="#E6E6E6" opacity="0.25"/>
  <ellipse xmlns="http://www.w3.org/2000/svg" rx="5.15301" ry="3.606" id="color_ellipse26" enable-background="new    " cx="6.54301" cy="16.356" fill="#cccccc" opacity="0.25"/>
  <polygon xmlns="http://www.w3.org/2000/svg" id="polygon28" fill="#666666" points="2.991,11.661,2.991,16.355,3.71401,16.355,3.71401,14.167,5.76301,14.167,8.66801,11.048,3.86701,11.048"/>
  <polygon xmlns="http://www.w3.org/2000/svg" id="polygon30" fill="#666666" points="9.22601,10.844,9.54401,11.214,6.77801,14.167,9.43101,14.167,9.43101,16.355,10.095,16.355,10.095,10.844"/>
  <path xmlns="http://www.w3.org/2000/svg" id="color_path32" d="M11.694,14.099L11.694,9.80001c0,-2.845,-2.303,-5.153,-5.15101,-5.153C3.69801,4.647,1.39,6.951,1.39,9.80001l0,9.92101c1.071,1.201,2.979,2.001,5.15301,2.001c3.35901,0,6.08301,-1.902,6.08301,-4.26l0,-1.107C12.626,15.525,12.281,14.754,11.694,14.099z" enable-background="new    " fill="#cccccc" opacity="0.65"/>
  <path xmlns="http://www.w3.org/2000/svg" id="path34" d="M8.94301,7.376l1.043,-0.199C9.37401,6.354,8.47301,5.754,7.41101,5.55l0.186,0.786C8.15201,6.532,8.61901,6.903,8.94301,7.376z" enable-background="new    " fill="#FFFFFF" opacity="0.5"/>
  <path xmlns="http://www.w3.org/2000/svg" id="path36" d="M1.948,19.132l0,1.104c0.472001,0.385,1.042,0.71,1.677,0.957001l0,-1.107C2.988,19.841,2.422,19.518,1.948,19.132z" enable-background="new    " fill="#FFFFFF" opacity="0.5"/>
  <path xmlns="http://www.w3.org/2000/svg" id="path38" d="M9.44001,19.338c-0.186,0.089,-0.385001,0.167,-0.585001,0.239c-0.0420001,0.015,-0.0860001,0.03,-0.13,0.043c-0.410001,0.131,-0.844001,0.231,-1.305,0.287c-0.0540001,0.007,-0.11,0.015,-0.164,0.015c-0.233,0.021,-0.468001,0.042,-0.706001,0.042c-0.108,0,-0.223,-0.012,-0.343001,-0.018c-0.873001,-0.042,-1.694,-0.229,-2.397,-0.537l0,-6.098L3.81001,9.80301c0,-1.069,0.616001,-1.984,1.507,-2.435L5.30201,7.33l-0.907001,-1.1C3.181,6.959,2.367,8.281,2.367,9.80101l0,8.653c-0.0360001,-0.035,-0.224,-0.224,-0.349001,-0.384l-0.224,0.499c1.019,1.077,2.769,1.789,4.75701,1.789c1.222,0,2.354,-0.271,3.28001,-0.728l-0.383001,-0.298C9.44001,19.338,9.44001,19.338,9.44001,19.338z" enable-background="new    " fill="#FFFFFF" opacity="0.5"/>
 </g>
</g>
</g></g><g partID='854123570'><g transform='translate(53.6049,10.2294)' ><g transform='matrix(-1,0,0,-1,0,0)'  ><g xmlns="http://www.w3.org/2000/svg" id="breadboard">
<rect height="7.2" width="50.4" xmlns="http://www.w3.org/2000/svg" fill="#404040"/>
<rect height="2.78312" width="2.78312" xmlns="http://www.w3.org/2000/svg" id="connector0pin" x="2.20843" y="2.20843" fill="none"/>
<g height="2.25658" width="2.15829" xmlns="http://www.w3.org/2000/svg" id="connector0terminal" x="2.51834" y="2.47054" fill="none"/>
<rect height="2.78312" width="2.78312" xmlns="http://www.w3.org/2000/svg" x="2.20843" y="2.20843"/>
<polygon xmlns="http://www.w3.org/2000/svg" fill="#2A2A29" points="1.18445,1.18445,2.20843,2.20843,4.99156,2.20843,6.01654,1.18445"/>
<polygon xmlns="http://www.w3.org/2000/svg" fill="#474747" points="6.01654,1.18445,4.99156,2.20843,4.99156,4.99156,6.01654,6.01654"/>
<polygon xmlns="http://www.w3.org/2000/svg" fill="#595959" points="6.01654,6.01654,4.99156,4.99156,2.20843,4.99156,1.18445,6.01654"/>
<polygon xmlns="http://www.w3.org/2000/svg" fill="#373737" points="1.18445,6.01654,2.20843,4.99156,2.20843,2.20843,1.18445,1.18445"/>
<rect height="2.78312" width="2.78312" xmlns="http://www.w3.org/2000/svg" id="connector1pin" x="9.40846" y="2.20843" fill="none"/>
<g height="2.25658" width="2.15829" xmlns="http://www.w3.org/2000/svg" id="connector1terminal" x="9.71834" y="2.47054" fill="none"/>
<rect height="2.78312" width="2.78312" xmlns="http://www.w3.org/2000/svg" x="9.40846" y="2.20843"/>
<polygon xmlns="http://www.w3.org/2000/svg" fill="#2A2A29" points="8.38447,1.18445,9.40846,2.20843,12.1915,2.20843,13.2165,1.18445"/>
<polygon xmlns="http://www.w3.org/2000/svg" fill="#474747" points="13.2165,1.18445,12.1915,2.20843,12.1915,4.99156,13.2165,6.01654"/>
<polygon xmlns="http://www.w3.org/2000/svg" fill="#595959" points="13.2165,6.01654,12.1915,4.99156,9.40846,4.99156,8.38447,6.01654"/>
<polygon xmlns="http://www.w3.org/2000/svg" fill="#373737" points="8.38447,6.01654,9.40846,4.99156,9.40846,2.20843,8.38447,1.18445"/>
<rect height="2.78312" width="2.78312" xmlns="http://www.w3.org/2000/svg" id="connector2pin" x="16.6085" y="2.20843" fill="none"/>
<g height="2.25658" width="2.15829" xmlns="http://www.w3.org/2000/svg" id="connector2terminal" x="16.9183" y="2.47054" fill="none"/>
<rect height="2.78312" width="2.78312" xmlns="http://www.w3.org/2000/svg" x="16.6085" y="2.20843"/>
<polygon xmlns="http://www.w3.org/2000/svg" fill="#2A2A29" points="15.5845,1.18445,16.6085,2.20843,19.3915,2.20843,20.4165,1.18445"/>
<polygon xmlns="http://www.w3.org/2000/svg" fill="#474747" points="20.4165,1.18445,19.3915,2.20843,19.3915,4.99156,20.4165,6.01654"/>
<polygon xmlns="http://www.w3.org/2000/svg" fill="#595959" points="20.4165,6.01654,19.3915,4.99156,16.6085,4.99156,15.5845,6.01654"/>
<polygon xmlns="http://www.w3.org/2000/svg" fill="#373737" points="15.5845,6.01654,16.6085,4.99156,16.6085,2.20843,15.5845,1.18445"/>
<rect height="2.78312" width="2.78312" xmlns="http://www.w3.org/2000/svg" id="connector3pin" x="23.8085" y="2.20843" fill="none"/>
<g height="2.25658" width="2.15829" xmlns="http://www.w3.org/2000/svg" id="connector3terminal" x="24.1183" y="2.47054" fill="none"/>
<rect height="2.78312" width="2.78312" xmlns="http://www.w3.org/2000/svg" x="23.8085" y="2.20843"/>
<polygon xmlns="http://www.w3.org/2000/svg" fill="#2A2A29" points="22.7845,1.18445,23.8085,2.20843,26.5915,2.20843,27.6165,1.18445"/>
<polygon xmlns="http://www.w3.org/2000/svg" fill="#474747" points="27.6165,1.18445,26.5915,2.20843,26.5915,4.99156,27.6165,6.01654"/>
<polygon xmlns="http://www.w3.org/2000/svg" fill="#595959" points="27.6165,6.01654,26.5915,4.99156,23.8085,4.99156,22.7845,6.01654"/>
<polygon xmlns="http://www.w3.org/2000/svg" fill="#373737" points="22.7845,6.01654,23.8085,4.99156,23.8085,2.20843,22.7845,1.18445"/>
<rect height="2.78312" width="2.78312" xmlns="http://www.w3.org/2000/svg" id="connector4pin" x="31.0085" y="2.20843" fill="none"/>
<g height="2.25658" width="2.15829" xmlns="http://www.w3.org/2000/svg" id="connector4terminal" x="31.3183" y="2.47054" fill="none"/>
<rect height="2.78312" width="2.78312" xmlns="http://www.w3.org/2000/svg" x="31.0085" y="2.20843"/>
<polygon xmlns="http://www.w3.org/2000/svg" fill="#2A2A29" points="29.9845,1.18445,31.0085,2.20843,33.7915,2.20843,34.8165,1.18445"/>
<polygon xmlns="http://www.w3.org/2000/svg" fill="#474747" points="34.8165,1.18445,33.7915,2.20843,33.7915,4.99156,34.8165,6.01654"/>
<polygon xmlns="http://www.w3.org/2000/svg" fill="#595959" points="34.8165,6.01654,33.7915,4.99156,31.0085,4.99156,29.9845,6.01654"/>
<polygon xmlns="http://www.w3.org/2000/svg" fill="#373737" points="29.9845,6.01654,31.0085,4.99156,31.0085,2.20843,29.9845,1.18445"/>
<rect height="2.78312" width="2.78312" xmlns="http://www.w3.org/2000/svg" id="connector5pin" x="38.2085" y="2.20843" fill="none"/>
<g height="2.25658" width="2.15829" xmlns="http://www.w3.org/2000/svg" id="connector5terminal" x="38.5183" y="2.47054" fill="none"/>
<rect height="2.78312" width="2.78312" xmlns="http://www.w3.org/2000/svg" x="38.2085" y="2.20843"/>
<polygon xmlns="http://www.w3.org/2000/svg" fill="#2A2A29" points="37.1845,1.18445,38.2085,2.20843,40.9915,2.20843,42.0165,1.18445"/>
<polygon xmlns="http://www.w3.org/2000/svg" fill="#474747" points="42.0165,1.18445,40.9915,2.20843,40.9915,4.99156,42.0165,6.01654"/>
<polygon xmlns="http://www.w3.org/2000/svg" fill="#595959" points="42.0165,6.01654,40.9915,4.99156,38.2085,4.99156,37.1845,6.01654"/>
<polygon xmlns="http://www.w3.org/2000/svg" fill="#373737" points="37.1845,6.01654,38.2085,4.99156,38.2085,2.20843,37.1845,1.18445"/>
<rect height="2.78312" width="2.78312" xmlns="http://www.w3.org/2000/svg" id="connector6pin" x="45.4085" y="2.20843" fill="none"/>
<g height="2.25658" width="2.15829" xmlns="http://www.w3.org/2000/svg" id="connector6terminal" x="45.7183" y="2.47054" fill="none"/>
<rect height="2.78312" width="2.78312" xmlns="http://www.w3.org/2000/svg" x="45.4085" y="2.20843"/>
<polygon xmlns="http://www.w3.org/2000/svg" fill="#2A2A29" points="44.3845,1.18445,45.4085,2.20843,48.1915,2.20843,49.2165,1.18445"/>
<polygon xmlns="http://www.w3.org/2000/svg" fill="#474747" points="49.2165,1.18445,48.1915,2.20843,48.1915,4.99156,49.2165,6.01654"/>
<polygon xmlns="http://www.w3.org/2000/svg" fill="#595959" points="49.2165,6.01654,48.1915,4.99156,45.4085,4.99156,44.3845,6.01654"/>
<polygon xmlns="http://www.w3.org/2000/svg" fill="#373737" points="44.3845,6.01654,45.4085,4.99156,45.4085,2.20843,44.3845,1.18445"/>
</g>
</g></g></g></svg>